[Header]
FileType HTR
DataType HTRS
FileVersion 1
NumSegments 64
NumFrames 3
DataFrameRate 24
EulerRotationOrder ZYX
CalibrationUnits mm
RotationUnits Degrees
GlobalAxisofGravity Y
BoneLengthAxis Y
ScaleFactor 1.0
[SegmentNames&Hierarchy]
Hips	GLOBAL
Spine	Hips
Spine1	Spine
Spine2	Spine1
Neck	Spine2
Head	Neck
LeftEye	Head
RightEye	Head
LeftShoulder	Spine2
LeftArm	LeftShoulder
LeftForeArm	LeftArm
LeftHand	LeftForeArm
LeftHandThumb1	LeftHand
LeftHandThumb2	LeftHandThumb1
LeftHandThumb3	LeftHandThumb2
LeftHandThumb4	LeftHandThumb3
LeftHandIndex1	LeftHand
LeftHandIndex2	LeftHandIndex1
LeftHandIndex3	LeftHandIndex2
LeftHandIndex4	LeftHandIndex3
LeftHandMiddle1	LeftHand
LeftHandMiddle2	LeftHandMiddle1
LeftHandMiddle3	LeftHandMiddle2
LeftHandMiddle4	LeftHandMiddle3
LeftHandRing1	LeftHand
LeftHandRing2	LeftHandRing1
LeftHandRing3	LeftHandRing2
LeftHandRing4	LeftHandRing3
LeftHandPinky1	LeftHand
LeftHandPinky2	LeftHandPinky1
LeftHandPinky3	LeftHandPinky2
LeftHandPinky4	LeftHandPinky3
RightShoulder	Spine2
RightArm	RightShoulder
RightForeArm	RightArm
RightHand	RightForeArm
RightHandPinky1	RightHand
RightHandPinky2	RightHandPinky1
RightHandPinky3	RightHandPinky2
RightHandPinky4	RightHandPinky3
RightHandRing1	RightHand
RightHandRing2	RightHandRing1
RightHandRing3	RightHandRing2
RightHandRing4	RightHandRing3
RightHandMiddle1	RightHand
RightHandMiddle2	RightHandMiddle1
RightHandMiddle3	RightHandMiddle2
RightHandMiddle4	RightHandMiddle3
RightHandIndex1	RightHand
RightHandIndex2	RightHandIndex1
RightHandIndex3	RightHandIndex2
RightHandIndex4	RightHandIndex3
RightHandThumb1	RightHand
RightHandThumb2	RightHandThumb1
RightHandThumb3	RightHandThumb2
RightHandThumb4	RightHandThumb3
LeftUpLeg	Hips
LeftLeg	LeftUpLeg
LeftFoot	LeftLeg
LeftToeBase	LeftFoot
RightUpLeg	Hips
RightLeg	RightUpLeg
RightFoot	RightLeg
RightToeBase	RightFoot
[BasePosition]
Hips	0	0	0	0	0	0	1
Spine	0	0	0	0	0	0	1
Spine1	0	0	0	0	0	0	1
Spine2	0	0	0	0	0	0	1
Neck	0	0	0	0	0	0	1
Head	0	0	0	0	0	0	1
LeftEye	0	0	0	0	0	0	1
RightEye	0	0	0	0	0	0	1
LeftShoulder	0	0	0	0	0	0	1
LeftArm	0	0	0	0	0	0	1
LeftForeArm	0	0	0	0	0	0	1
LeftHand	0	0	0	0	0	0	1
LeftHandThumb1	0	0	0	0	0	0	1
LeftHandThumb2	0	0	0	0	0	0	1
LeftHandThumb3	0	0	0	0	0	0	1
LeftHandThumb4	0	0	0	0	0	0	1
LeftHandIndex1	0	0	0	0	0	0	1
LeftHandIndex2	0	0	0	0	0	0	1
LeftHandIndex3	0	0	0	0	0	0	1
LeftHandIndex4	0	0	0	0	0	0	1
LeftHandMiddle1	0	0	0	0	0	0	1
LeftHandMiddle2	0	0	0	0	0	0	1
LeftHandMiddle3	0	0	0	0	0	0	1
LeftHandMiddle4	0	0	0	0	0	0	1
LeftHandRing1	0	0	0	0	0	0	1
LeftHandRing2	0	0	0	0	0	0	1
LeftHandRing3	0	0	0	0	0	0	1
LeftHandRing4	0	0	0	0	0	0	1
LeftHandPinky1	0	0	0	0	0	0	1
LeftHandPinky2	0	0	0	0	0	0	1
LeftHandPinky3	0	0	0	0	0	0	1
LeftHandPinky4	0	0	0	0	0	0	1
RightShoulder	0	0	0	0	0	0	1
RightArm	0	0	0	0	0	0	1
RightForeArm	0	0	0	0	0	0	1
RightHand	0	0	0	0	0	0	1
RightHandPinky1	0	0	0	0	0	0	1
RightHandPinky2	0	0	0	0	0	0	1
RightHandPinky3	0	0	0	0	0	0	1
RightHandPinky4	0	0	0	0	0	0	1
RightHandRing1	0	0	0	0	0	0	1
RightHandRing2	0	0	0	0	0	0	1
RightHandRing3	0	0	0	0	0	0	1
RightHandRing4	0	0	0	0	0	0	1
RightHandMiddle1	0	0	0	0	0	0	1
RightHandMiddle2	0	0	0	0	0	0	1
RightHandMiddle3	0	0	0	0	0	0	1
RightHandMiddle4	0	0	0	0	0	0	1
RightHandIndex1	0	0	0	0	0	0	1
RightHandIndex2	0	0	0	0	0	0	1
RightHandIndex3	0	0	0	0	0	0	1
RightHandIndex4	0	0	0	0	0	0	1
RightHandThumb1	0	0	0	0	0	0	1
RightHandThumb2	0	0	0	0	0	0	1
RightHandThumb3	0	0	0	0	0	0	1
RightHandThumb4	0	0	0	0	0	0	1
LeftUpLeg	0	0	0	0	0	0	1
LeftLeg	0	0	0	0	0	0	1
LeftFoot	0	0	0	0	0	0	1
LeftToeBase	0	0	0	0	0	0	1
RightUpLeg	0	0	0	0	0	0	1
RightLeg	0	0	0	0	0	0	1
RightFoot	0	0	0	0	0	0	1
RightToeBase	0	0	0	0	0	0	1
[Hips]
7	28.43927002	976.081543	452.0361633	2.251490116	-4.566671371	0.8706967235	1.0
8	33.84320068	980.9785156	532.5955811	1.222257137	-4.401683807	2.252146721	1.0
9	41.14450455	986.1912842	611.5528564	0.4150262177	-4.133033752	3.727638483	1.0
[Spine]
7	0	101.8159943	1.315000057	0.2757166326	2.132309675	2.079190016	1.0
8	0	101.8159943	1.315000057	0.8311086893	1.618392229	0.5093019009	1.0
9	0	101.8159943	1.315000057	1.670298576	1.297393918	-0.3208858073	1.0
[Spine1]
7	0	100.8349991	-10.00800037	1.882253289	2.776550055	-1.545963645	1.0
8	0	100.8349991	-10.00800037	1.461381912	2.779280901	-1.338161707	1.0
9	0	100.8349991	-10.00800037	1.025359273	2.390984058	-1.564033866	1.0
[Spine2]
7	0	91	-13.73399925	-2.550033092	2.758083582	-2.111202717	1.0
8	0	91	-13.73399925	-2.99883461	2.722705364	-1.92258811	1.0
9	0	91	-13.73399925	-3.454147816	2.28909874	-2.164009333	1.0
[Neck]
7	0	166.7169952	-25.16200066	-4.999457836	-0.5468363762	-2.810805559	1.0
8	0	166.7169952	-25.16200066	-4.528217793	-0.6024642587	-2.369920492	1.0
9	0	166.7169952	-25.16200066	-4.481081963	-0.591989994	-2.279165506	1.0
[Head]
7	0	96.17900085	16.84999847	-0.5219165683	-2.515130043	-1.341718197	1.0
8	0	96.17900085	16.84999847	0.4716276824	-2.304093122	-1.374612212	1.0
9	0	96.17900085	16.84999847	0.7551012635	-2.183890581	-0.9768550992	1.0
[LeftEye]
7	30.6760006	64.09500122	92.83599854	0	0	0	1.0
8	30.6760006	64.09500122	92.83599854	0	0	0	1.0
9	30.6760006	64.09500122	92.83599854	0	0	0	1.0
[RightEye]
7	-30.6760006	64.09500122	92.83499908	0	0	0	1.0
8	-30.6760006	64.09500122	92.83499908	0	0	0	1.0
9	-30.6760006	64.09500122	92.83499908	0	0	0	1.0
[LeftShoulder]
7	45.70400238	109.4599991	-26.28000069	7.483414173	-8.189814568	-6.619488239	1.0
8	45.70400238	109.4599991	-26.28000069	7.499159336	-8.456508636	-6.64286375	1.0
9	45.70400238	109.4599991	-26.28000069	7.481589794	-8.414536476	-8.180947304	1.0
[LeftArm]
7	105.923996	-5.24600029	-22.32099915	-18.65005684	26.00081253	-80.68877411	1.0
8	105.923996	-5.24600029	-22.32099915	-23.3903656	27.04135323	-82.48856354	1.0
9	105.923996	-5.24600029	-22.32099915	-22.69169807	27.79640388	-80.98189545	1.0
[LeftForeArm]
7	278.414978	-0.0009999999311	0	-8.624361726e-06	-25.56365013	-0.0001854647999	1.0
8	278.414978	-0.0009999999311	0	7.77151763e-06	-24.61404037	-0.0002093933872	1.0
9	278.414978	-0.0009999999311	0	4.221349172e-06	-27.09896278	-0.0002144820319	1.0
[LeftHand]
7	283.2879944	0	0	39.04667664	4.087915421	-24.83303642	1.0
8	283.2879944	0	0	36.1477623	5.635052681	-21.78640366	1.0
9	283.2879944	0	0	34.82611465	9.229646683	-20.49040985	1.0
[LeftHandThumb1]
7	24.6609993	-15.75	26.8239994	25.80350304	-7.590011597	36.03727341	1.0
8	24.6609993	-15.75	26.8239994	25.4691143	-8.434333801	35.32595062	1.0
9	24.6609993	-15.75	26.8239994	25.37244797	-8.770812988	34.82910919	1.0
[LeftHandThumb2]
7	32.29800034	-18.64699936	18.64699936	-3.233399153	24.73895264	-13.71689034	1.0
8	32.29800034	-18.64699936	18.64699936	-3.408079386	25.58177376	-14.30935574	1.0
9	32.29800034	-18.64699936	18.64699936	-4.609696388	26.25852013	-15.27472496	1.0
[LeftHandThumb3]
7	26.52600098	-15.31499958	15.31499958	6.304468155	-22.64226151	-0.9016627669	1.0
8	26.52600098	-15.31499958	15.31499958	6.394325733	-21.76630974	-1.286378145	1.0
9	26.52600098	-15.31499958	15.31499958	6.422235966	-21.49633026	-1.488169789	1.0
[LeftHandThumb4]
7	19.54599953	-11.28499985	11.28499985	0	0	0	1.0
8	19.54599953	-11.28499985	11.28499985	0	0	0	1.0
9	19.54599953	-11.28499985	11.28499985	0	0	0	1.0
[LeftHandIndex1]
7	91.09299469	-5.170999527	22.60099792	9.069470406	2.535479784	-3.485577106	1.0
8	91.09299469	-5.170999527	22.60099792	9.887102127	2.201323271	-2.893064499	1.0
9	91.09299469	-5.170999527	22.60099792	10.20570469	2.061699152	-3.113770723	1.0
[LeftHandIndex2]
7	36.76399994	0	0	-0.4818676412	2.480596542	-17.37873459	1.0
8	36.76399994	0	0	-0.4850462079	2.487325668	-17.45208168	1.0
9	36.76399994	0	0	-0.4880120456	2.493592739	-17.52005577	1.0
[LeftHandIndex3]
7	28.83100128	0	0	-0.03622409329	0.2307862639	-4.407245636	1.0
8	28.83100128	0	0	-0.03679614142	0.2381393462	-4.48044014	1.0
9	28.83100128	0	0	-0.03733425587	0.2449635118	-4.548646927	1.0
[LeftHandIndex4]
7	23.92700005	0	0	0	0	0	1.0
8	23.92700005	0	0	0	0	0	1.0
9	23.92700005	0	0	0	0	0	1.0
[LeftHandMiddle1]
7	95.33399963	0	0	-1.279135585	8.620257378	-13.8377161	1.0
8	95.33399963	0	0	-1.144634843	8.546982765	-12.68570232	1.0
9	95.33399963	0	0	-1.128908038	8.313186646	-12.56780148	1.0
[LeftHandMiddle2]
7	36.98199844	0	0	-1.02433455	3.336557865	-27.16930389	1.0
8	36.98199844	0	0	-1.017019868	3.326645136	-27.04749107	1.0
9	36.98199844	0	0	-1.010171175	3.317318439	-26.93317413	1.0
[LeftHandMiddle3]
7	29.50900078	0	0	-0.2482400686	1.849003911	-16.05118942	1.0
8	29.50900078	0	0	-0.2447062135	1.837513447	-15.93034458	1.0
9	29.50900078	0	0	-0.2413442582	1.82650435	-15.81475163	1.0
[LeftHandMiddle4]
7	28.3390007	0	0	0	0	0	1.0
8	28.3390007	0	0	0	0	0	1.0
9	28.3390007	0	0	0	0	0	1.0
[LeftHandRing1]
7	91.04499817	-0.4390000105	-18.65100098	-3.548037767	7.674725056	-32.39365005	1.0
8	91.04499817	-0.4390000105	-18.65100098	-3.397330999	7.657963753	-31.274086	1.0
9	91.04499817	-0.4390000105	-18.65100098	-3.336803198	7.633215427	-30.82929993	1.0
[LeftHandRing2]
7	31.54000092	0	0	-0.1827770621	2.015035391	-17.02908134	1.0
8	31.54000092	0	0	-0.1817424148	2.011138201	-16.98823166	1.0
9	31.54000092	0	0	-0.179510206	2.002641916	-16.89969635	1.0
[LeftHandRing3]
7	29.37700081	0	0	0.02986762486	1.228398204	-12.44341564	1.0
8	29.37700081	0	0	0.03035357781	1.224300265	-12.4021368	1.0
9	29.37700081	0	0	0.03138809651	1.215502739	-12.31309795	1.0
[LeftHandRing4]
7	26.47500038	0	0	0	0	0	1.0
8	26.47500038	0	0	0	0	0	1.0
9	26.47500038	0	0	0	0	0	1.0
[LeftHandPinky1]
7	80.77799988	-4.887000084	-38.06099701	-3.636209249	13.39593506	-28.53922272	1.0
8	80.77799988	-4.887000084	-38.06099701	-3.508793592	13.11439514	-27.62216568	1.0
9	80.77799988	-4.887000084	-38.06099701	-3.465243578	12.88204956	-27.31718254	1.0
[LeftHandPinky2]
7	36	0	0	-0.8967239857	2.600429535	-29.51178932	1.0
8	36	0	0	-0.9037007689	2.61129117	-29.64107895	1.0
9	36	0	0	-0.9002537131	2.60592103	-29.57724762	1.0
[LeftHandPinky3]
7	21.14200211	0	0	-0.1130003035	1.564829588	-7.126019478	1.0
8	21.14200211	0	0	-0.1157110482	1.57749176	-7.255064487	1.0
9	21.14200211	0	0	-0.1143664867	1.57124567	-7.191356182	1.0
[LeftHandPinky4]
7	19.75699997	0	0	0	0	0	1.0
8	19.75699997	0	0	0	0	0	1.0
9	19.75699997	0	0	0	0	0	1.0
[RightShoulder]
7	-45.70000076	109.4620056	-26.28000069	-0.6043004394	11.98593044	-2.562049866	1.0
8	-45.70000076	109.4620056	-26.28000069	-0.5435421467	10.94823837	-1.776007295	1.0
9	-45.70000076	109.4620056	-26.28000069	-0.5115613341	10.14966965	-1.232725978	1.0
[RightArm]
7	-105.9280014	-5.248000145	-22.32099915	11.72099209	6.756505966	71.24368286	1.0
8	-105.9280014	-5.248000145	-22.32099915	15.69167805	8.738125801	69.53050995	1.0
9	-105.9280014	-5.248000145	-22.32099915	16.90846443	8.251237869	69.42993927	1.0
[RightForeArm]
7	-278.414978	0	0	7.737868145e-06	42.25018311	6.305669558e-06	1.0
8	-278.414978	0	0	-5.307071206e-06	42.4107399	-1.541102733e-06	1.0
9	-278.414978	0	0	-3.187559741e-06	45.34840012	-3.598318244e-06	1.0
[RightHand]
7	-283.2879944	0	0.0009999999311	15.98458576	9.717516899	2.61404109	1.0
8	-283.2879944	0	0.0009999999311	13.11959648	11.65374279	-2.574500799	1.0
9	-283.2879944	0	0.0009999999311	12.6190691	11.7604723	-5.761151314	1.0
[RightHandPinky1]
7	-80.76699829	-4.885000229	-38.06000137	-6.726467133	-4.748532772	54.87296295	1.0
8	-80.76699829	-4.885000229	-38.06000137	-6.583538532	-5.444300175	53.73724747	1.0
9	-80.76699829	-4.885000229	-38.06000137	-6.426840305	-6.090960026	52.50541687	1.0
[RightHandPinky2]
7	-36	0	0.0009999999311	-2.169367075	-4.002717972	48.5982399	1.0
8	-36	0	0.0009999999311	-2.160694361	-3.995860338	48.48737717	1.0
9	-36	0	0.0009999999311	-2.161597967	-3.996594906	48.49898148	1.0
[RightHandPinky3]
7	-21.14200211	0	0	-2.014406443	-1.581970453	42.77667618	1.0
8	-21.14200211	0	0	-2.006737709	-1.574994802	42.67300034	1.0
9	-21.14200211	0	0	-2.007982254	-1.57610178	42.68970871	1.0
[RightHandPinky4]
7	-19.75699997	0	0	0	0	0	1.0
8	-19.75699997	0	0	0	0	0	1.0
9	-19.75699997	0	0	0	0	0	1.0
[RightHandRing1]
7	-91.03599548	-0.4390000105	-18.65100098	-5.864635468	-5.022260666	50.07452011	1.0
8	-91.03599548	-0.4390000105	-18.65100098	-5.757092953	-5.300712585	49.21086884	1.0
9	-91.03599548	-0.4390000105	-18.65100098	-5.589520931	-5.69083643	47.8813324	1.0
[RightHandRing2]
7	-31.54000092	0	0	-0.4098030925	-2.695020199	24.27078819	1.0
8	-31.54000092	0	0	-0.409288466	-2.693705559	24.25639534	1.0
9	-31.54000092	0	0	-0.401129812	-2.673557997	24.03684044	1.0
[RightHandRing3]
7	-29.37700081	0	0	-0.2054949254	-0.1875415444	20.68354797	1.0
8	-29.37700081	0	0	-0.205158338	-0.1862962544	20.67056465	1.0
9	-29.37700081	0	0	-0.1995990872	-0.1653659493	20.45324516	1.0
[RightHandRing4]
7	-26.47500038	0	0	0	0	0	1.0
8	-26.47500038	0	0	0	0	0	1.0
9	-26.47500038	0	0	0	0	0	1.0
[RightHandMiddle1]
7	-95.32500458	0	0	-3.918678761	-2.006635666	35.04714966	1.0
8	-95.32500458	0	0	-3.73504591	-1.827945828	33.73241043	1.0
9	-95.32500458	0	0	-3.481734991	-1.79257381	31.88178253	1.0
[RightHandMiddle2]
7	-36.98199844	0	0	-1.838490486	-4.226423264	39.1234169	1.0
8	-36.98199844	0	0	-1.834471822	-4.222845554	39.07007599	1.0
9	-36.98199844	0	0	-1.813480616	-4.204119682	38.79191208	1.0
[RightHandMiddle3]
7	-29.50900078	0	0	-0.9365945458	-3.133767605	32.13127518	1.0
8	-29.50900078	0	0	-0.9335585833	-3.129132032	32.07540512	1.0
9	-29.50900078	0	0	-0.9184505939	-3.105934143	31.79661179	1.0
[RightHandMiddle4]
7	-28.3390007	0	0.0009999999311	0	0	0	1.0
8	-28.3390007	0	0.0009999999311	0	0	0	1.0
9	-28.3390007	0	0.0009999999311	0	0	0	1.0
[RightHandIndex1]
7	-91.08300018	-5.167999744	22.60099792	-1.895534873	2.91092515	21.29613495	1.0
8	-91.08300018	-5.167999744	22.60099792	-1.762589693	2.659120798	20.12660789	1.0
9	-91.08300018	-5.167999744	22.60099792	-1.546680093	2.494699955	18.30013847	1.0
[RightHandIndex2]
7	-36.76399994	0	0	-0.9865800738	-3.349225998	27.27981758	1.0
8	-36.76399994	0	0	-0.9939139485	-3.359629631	27.40528107	1.0
9	-36.76399994	0	0	-0.985981226	-3.348338366	27.26942444	1.0
[RightHandIndex3]
7	-28.83100128	0	0	-0.3517847657	-0.5551416278	17.95747566	1.0
8	-28.83100128	0	0	-0.3556773067	-0.567115128	18.08259201	1.0
9	-28.83100128	0	0	-0.3514751792	-0.5541452765	17.94710159	1.0
[RightHandIndex4]
7	-23.92700005	0	0	0	0	0	1.0
8	-23.92700005	0	0	0	0	0	1.0
9	-23.92700005	0	0	0	0	0	1.0
[RightHandThumb1]
7	-24.64799881	-15.72700024	26.82600021	11.22872353	7.166690826	-13.19494057	1.0
8	-24.64799881	-15.72700024	26.82600021	11.22135639	5.050374508	-14.64807987	1.0
9	-24.64799881	-15.72700024	26.82600021	12.40495205	4.109318256	-14.309062	1.0
[RightHandThumb2]
7	-32.29800034	-18.64699936	18.64699936	3.674794197	-10.9867487	-13.46311378	1.0
8	-32.29800034	-18.64699936	18.64699936	4.672576427	-10.33903408	-13.17086315	1.0
9	-32.29800034	-18.64699936	18.64699936	4.482456684	-9.553325653	-13.56559563	1.0
[RightHandThumb3]
7	-26.52600098	-15.31399918	15.31399918	-12.96082878	11.16807938	6.461170197	1.0
8	-26.52600098	-15.31399918	15.31399918	-12.92651176	10.99960327	6.526155949	1.0
9	-26.52600098	-15.31399918	15.31399918	-12.90218449	10.88031101	6.570475578	1.0
[RightHandThumb4]
7	-19.54599953	-11.28499985	11.28499985	0	0	0	1.0
8	-19.54599953	-11.28499985	11.28499985	0	0	0	1.0
9	-19.54599953	-11.28499985	11.28499985	0	0	0	1.0
[LeftUpLeg]
7	82.07800293	-67.51699829	-15.99599934	-37.63190842	2.386169195	-2.668409586	1.0
8	82.07800293	-67.51699829	-15.99599934	-31.9220829	1.943725348	-4.913396835	1.0
9	82.07800293	-67.51699829	-15.99599934	-28.10676003	1.092606068	-6.934805393	1.0
[LeftLeg]
7	0	-443.7049866	2.845999956	18.51600647	3.26269865	2.732881784	1.0
8	0	-443.7049866	2.845999956	16.86868095	3.745948792	2.416289806	1.0
9	0	-443.7049866	2.845999956	19.06658363	4.086933613	2.43287468	1.0
[LeftFoot]
7	0	-444.2789917	-29.8219986	-7.491751194	-0.6572816372	-5.360871792	1.0
8	0	-444.2789917	-29.8219986	3.340950489	-0.4200511575	-0.3069279492	1.0
9	0	-444.2789917	-29.8219986	8.306114197	-0.6099096537	1.629364729	1.0
[LeftToeBase]
7	0	-87.28699493	107.1060028	-10.8809576	-9.704739341e-07	-9.598825272e-07	1.0
8	0	-87.28699493	107.1060028	-13.60746098	-2.214044912e-07	-6.323567163e-07	1.0
9	0	-87.28699493	107.1060028	-11.14267826	-1.705624413e-06	-1.234095407e-06	1.0
[RightUpLeg]
7	-82.07800293	-67.51699829	-15.99599934	15.0703249	-15.89308167	-3.37600708	1.0
8	-82.07800293	-67.51699829	-15.99599934	15.4046278	-14.00732613	-5.063241005	1.0
9	-82.07800293	-67.51699829	-15.99599934	10.20351791	-10.41228771	-6.47145319	1.0
[RightLeg]
7	0	-443.7049866	2.861999989	14.82586575	10.91064548	-2.336606503	1.0
8	0	-443.7049866	2.861999989	21.32040787	10.76874542	-3.567341805	1.0
9	0	-443.7049866	2.861999989	37.18188477	9.296697617	-2.552992105	1.0
[RightFoot]
7	0	-444.2770081	-29.83799934	-10.16971397	4.212534428	2.062676191	1.0
8	0	-444.2770081	-29.83799934	1.610638618	0.4644295573	8.932170868	1.0
9	0	-444.2770081	-29.83799934	11.38498497	-2.050071478	11.86764431	1.0
[RightToeBase]
7	0	-87.28699493	107.1060028	-20.81611061	-0.5419613123	-1.832280397	1.0
8	0	-87.28699493	107.1060028	-27.67900467	-1.338480473	-3.945713997	1.0
9	0	-87.28699493	107.1060028	-11.78006554	-0.4815506041	-3.95200491	1.0
[EndOfFile]
